<?xml version="1.0" standalone="no"?>
<!DOCTYPE svg PUBLIC "-//W3C//DTD SVG 20010904//EN"
 "http://www.w3.org/TR/2001/REC-SVG-20010904/DTD/svg10.dtd">
<svg version="1.0" xmlns="http://www.w3.org/2000/svg"
 width="260.000000pt" height="260.000000pt" viewBox="0 0 260.000000 260.000000"
 preserveAspectRatio="xMidYMid meet">
<metadata>
Created by potrace 1.11, written by Peter Selinger 2001-2013
</metadata>
<g transform="translate(0.000000,260.000000) scale(0.100000,-0.100000)"
fill="#000000" stroke="none">
<path d="M1 2073 l0 -528 23 85 c76 281 228 517 444 691 163 131 293 197 502
254 l85 24 -527 0 -528 1 1 -527z"/>
<path d="M1618 2580 c141 -37 276 -94 376 -158 296 -190 505 -475 586 -802
l19 -75 0 528 1 527 -527 -1 -528 0 73 -19z"/>
<path d="M1095 2553 c-121 -17 -322 -90 -440 -161 -185 -110 -344 -271 -452
-457 -48 -81 -88 -173 -80 -181 4 -4 945 704 1066 803 5 4 -54 1 -94 -4z"/>
<path d="M1945 2158 c292 -223 531 -402 533 -398 9 23 -90 203 -167 305 -201
267 -519 453 -836 491 l-60 7 530 -405z"/>
<path d="M770 2072 l-526 -397 201 -660 201 -660 657 -3 c619 -2 658 -1 664
15 4 10 95 308 203 663 l196 645 -528 397 c-290 219 -531 398 -535 397 -4 0
-244 -179 -533 -397z m653 -126 c11 -9 111 -274 263 -697 134 -376 253 -705
264 -732 l19 -47 -113 0 -113 0 -30 68 c-17 37 -50 118 -73 180 l-43 112 -305
-2 -305 -3 -34 -95 c-19 -52 -46 -132 -60 -177 l-26 -83 -104 0 -103 0 0 27
c0 20 417 1197 506 1426 10 28 40 36 144 36 65 0 101 -4 113 -13z"/>
<path d="M1225 1524 c-37 -109 -94 -274 -126 -366 l-57 -168 254 0 c140 0 254
1 254 3 0 3 -179 511 -244 696 -12 34 -13 32 -81 -165z"/>
<path d="M72 1617 c-102 -404 -1 -835 265 -1142 75 -86 180 -182 189 -172 7 7
-418 1397 -427 1397 -4 0 -16 -37 -27 -83z"/>
<path d="M2291 999 c-117 -380 -210 -693 -207 -696 12 -12 215 206 270 291
171 260 242 559 205 856 -9 77 -42 226 -51 236 -2 2 -100 -307 -217 -687z"/>
<path d="M1 528 l-1 -528 523 1 522 1 -68 18 c-289 77 -537 239 -711 465 -130
168 -193 297 -246 497 l-19 73 0 -527z"/>
<path d="M2580 983 c-32 -146 -117 -326 -214 -458 -188 -254 -438 -424 -743
-505 l-68 -18 523 -1 522 -1 0 520 c0 286 -2 520 -3 520 -2 0 -10 -26 -17 -57z"/>
<path d="M636 221 c23 -23 167 -92 249 -119 155 -53 244 -67 415 -67 213 0
395 42 570 130 136 69 180 64 -569 65 -413 0 -671 -4 -665 -9z"/>
</g>
</svg>
